<svg xmlns="http://www.w3.org/2000/svg" viewBox="0 0 512 512" width="512" height="512">
  <path d="M417.447 220.772h59.195v49.039h-59.195zM311.9 220.772h59.195v49.039H311.9z" fill="#86f1a7"/>
  <path d="M453.043 220.772h23.599v49.039h-23.599zM347.496 220.772h23.599v49.039h-23.599z" fill="#78d090"/>
  <path d="M476.642 137.672h-59.195V98.633c0-5.523 4.477-10 10-10h39.195c5.523 0 10 4.477 10 10zM371.095 137.672H311.9V98.633c0-5.523 4.477-10 10-10h39.195c5.523 0 10 4.477 10 10zM265.549 137.672h-59.195V98.633c0-5.523 4.477-10 10-10h39.195c5.523 0 10 4.477 10 10z" fill="#dd5790"/>
  <path d="M466.642 88.633h-23.895c5.686 0 10.296 4.61 10.296 10.296v38.743h23.599V98.633c0-5.522-4.477-10-10-10zM361.095 88.633H337.2c5.686 0 10.296 4.61 10.296 10.296v38.743h23.599V98.633c0-5.522-4.477-10-10-10zM255.549 88.633h-23.895c5.686 0 10.296 4.61 10.296 10.296v38.743h23.599V98.633c0-5.522-4.477-10-10-10z" fill="#da387d"/>
  <path d="M502 230.19H180.996c-5.523 0-10-4.477-10-10v-84.673c0-5.523 4.477-10 10-10H502c5.523 0 10 4.477 10 10v84.673c0 5.523-4.477 10-10 10z" fill="#dd5790"/>
  <path d="M502 364.853H180.996c-5.523 0-10-4.477-10-10V270.18c0-5.523 4.477-10 10-10H502c5.523 0 10 4.477 10 10v84.673c0 5.523-4.477 10-10 10z" fill="#86f1a7"/>
  <path d="M502 125.518h-19.567v64.81c0 5.686-4.61 10.296-10.296 10.296H170.996v19.567c0 5.523 4.477 10 10 10H502c5.523 0 10-4.477 10-10v-84.673c0-5.523-4.477-10-10-10z" fill="#da387d"/>
  <path d="M502 260.18h-19.567v64.81c0 5.686-4.61 10.296-10.296 10.296H170.996v19.567c0 5.523 4.477 10 10 10H502c5.523 0 10-4.477 10-10V270.18c0-5.523-4.477-10-10-10z" fill="#78d090"/>
  <path d="M331.004 423.367H10c-5.523 0-10-4.477-10-10V224.021c0-5.523 4.477-10 10-10h321.004c5.523 0 10 4.477 10 10v189.345c0 5.523-4.477 10.001-10 10.001z" fill="#f6e266"/>
  <g>
    <path d="M330.708 214.021h-18.705V384.07c0 5.686-4.609 10.296-10.296 10.296H0v18.705c0 5.686 4.609 10.296 10.296 10.296h320.413c5.686 0 10.296-4.61 10.296-10.296V224.317c-.001-5.686-4.61-10.296-10.297-10.296z" fill="#ecc32e"/>
  </g>
  <g>
    <circle cx="69.664" cy="274.405" fill="#ecc32e" r="30.071"/>
  </g>
  <g>
    <circle cx="69.664" cy="364.004" fill="#ecc32e" r="30.071"/>
  </g>
  <g>
    <circle cx="170.502" cy="274.405" fill="#ecc32e" r="30.071"/>
  </g>
  <g>
    <circle cx="170.502" cy="364.004" fill="#ecc32e" r="30.071"/>
  </g>
  <g>
    <circle cx="271.341" cy="274.405" fill="#ecc32e" r="30.071"/>
  </g>
  <g>
    <circle cx="271.341" cy="364.004" fill="#ecc32e" r="30.071"/>
  </g>
  <g>
    <path d="M81.178 246.622c1.472 3.547 2.288 7.435 2.288 11.514 0 16.608-13.463 30.071-30.071 30.071-4.079 0-7.967-.816-11.514-2.288 4.52 10.893 15.255 18.557 27.783 18.557 16.608 0 30.071-13.463 30.071-30.071-.001-12.528-7.664-23.263-18.557-27.783z" fill="#e49824"/>
  </g>
  <g>
    <path d="M81.178 336.221c1.472 3.547 2.288 7.435 2.288 11.514 0 16.608-13.463 30.071-30.071 30.071-4.079 0-7.967-.816-11.514-2.288 4.52 10.893 15.255 18.557 27.783 18.557 16.608 0 30.071-13.463 30.071-30.071-.001-12.528-7.664-23.263-18.557-27.783z" fill="#e49824"/>
  </g>
  <g>
    <path d="M182.016 246.622c1.472 3.547 2.288 7.435 2.288 11.514 0 16.608-13.463 30.071-30.071 30.071-4.079 0-7.967-.816-11.514-2.288 4.52 10.893 15.255 18.557 27.783 18.557 16.608 0 30.071-13.463 30.071-30.071 0-12.528-7.663-23.263-18.557-27.783z" fill="#e49824"/>
  </g>
  <g>
    <path d="M182.016 336.221c1.472 3.547 2.288 7.435 2.288 11.514 0 16.608-13.463 30.071-30.071 30.071-4.079 0-7.967-.816-11.514-2.288 4.52 10.893 15.255 18.557 27.783 18.557 16.608 0 30.071-13.463 30.071-30.071 0-12.528-7.663-23.263-18.557-27.783z" fill="#e49824"/>
  </g>
  <g>
    <path d="M282.855 246.622c1.472 3.547 2.288 7.435 2.288 11.514 0 16.608-13.463 30.071-30.071 30.071-4.079 0-7.967-.816-11.514-2.288 4.52 10.893 15.255 18.557 27.783 18.557 16.608 0 30.071-13.463 30.071-30.071-.001-12.528-7.664-23.263-18.557-27.783z" fill="#e49824"/>
  </g>
  <g>
    <path d="M282.855 336.221c1.472 3.547 2.288 7.435 2.288 11.514 0 16.608-13.463 30.071-30.071 30.071-4.079 0-7.967-.816-11.514-2.288 4.52 10.893 15.255 18.557 27.783 18.557 16.608 0 30.071-13.463 30.071-30.071-.001-12.528-7.664-23.263-18.557-27.783z" fill="#e49824"/>
  </g>
</svg>
