<svg width="1024" height="1024" viewBox="0 0 1024 1024" fill="none" xmlns="http://www.w3.org/2000/svg">
<rect width="1024" height="1024" fill="black"/>
<path d="M773.275 454.599H868.889V533.808H773.275V454.599ZM602.792 454.599H698.406V533.808H602.792V454.599Z" fill="#0047FF"/>
<path d="M830.77 454.599H868.888V533.808H830.77V454.599ZM660.287 454.599H698.405V533.808H660.287V454.599Z" fill="#5886FB"/>
<path d="M868.889 320.373H773.275V257.315C773.275 248.394 780.507 241.163 789.428 241.163H852.737C861.658 241.163 868.889 248.394 868.889 257.315V320.373ZM698.406 320.373H602.792V257.315C602.792 248.394 610.023 241.163 618.944 241.163H682.254C691.174 241.163 698.406 248.394 698.406 257.315V320.373ZM527.924 320.373H432.311V257.315C432.311 248.394 439.542 241.163 448.463 241.163H511.772C520.693 241.163 527.924 248.394 527.924 257.315V320.373Z" fill="#00FF1A"/>
<path d="M852.736 241.163H814.14C823.325 241.163 830.771 248.609 830.771 257.794V320.373H868.889V257.315C868.889 248.396 861.657 241.163 852.736 241.163ZM682.253 241.163H643.657C652.842 241.163 660.288 248.609 660.288 257.794V320.373H698.406V257.315C698.406 248.396 691.174 241.163 682.253 241.163ZM511.772 241.163H473.176C482.36 241.163 489.806 248.609 489.806 257.794V320.373H527.924V257.315C527.924 248.396 520.693 241.163 511.772 241.163Z" fill="#00B112"/>
<path d="M909.847 469.811H391.351C382.43 469.811 375.198 462.579 375.198 453.658V316.892C375.198 307.971 382.43 300.739 391.351 300.739H909.847C918.768 300.739 926 307.971 926 316.892V453.658C926 462.579 918.768 469.811 909.847 469.811Z" fill="#00FF1A"/>
<path d="M909.847 687.323H391.351C382.43 687.323 375.198 680.092 375.198 671.171V534.404C375.198 525.483 382.43 518.252 391.351 518.252H909.847C918.768 518.252 926 525.483 926 534.404V671.171C926 680.092 918.768 687.323 909.847 687.323Z" fill="#0047FF"/>
<path d="M909.847 300.741H878.242V405.424C878.242 414.609 870.796 422.055 861.612 422.055H375.198V453.66C375.198 462.581 382.43 469.812 391.351 469.812H909.847C918.768 469.812 926 462.581 926 453.66V316.893C926 307.972 918.768 300.741 909.847 300.741Z" fill="#00B112"/>
<path d="M909.847 518.252H878.242V622.935C878.242 632.119 870.796 639.565 861.612 639.565H375.198V671.171C375.198 680.092 382.43 687.323 391.351 687.323H909.847C918.768 687.323 926 680.092 926 671.171V534.404C926 525.483 918.768 518.252 909.847 518.252Z" fill="#5886FB"/>
<path d="M633.649 781.837H115.152C106.231 781.837 99 774.606 99 765.685V459.846C99 450.925 106.231 443.694 115.152 443.694H633.649C642.57 443.694 649.801 450.925 649.801 459.846V765.683C649.801 774.604 642.57 781.837 633.649 781.837Z" fill="#FF0000"/>
<path d="M633.171 443.694H602.958V718.363C602.958 727.547 595.513 734.994 586.327 734.994H99V765.206C99 774.391 106.445 781.837 115.63 781.837H633.173C642.357 781.837 649.803 774.391 649.803 765.206V460.325C649.801 451.14 642.357 443.694 633.171 443.694Z" fill="#FF6868"/>
<path d="M211.524 589.8C238.349 589.8 260.096 568.054 260.096 541.228C260.096 514.403 238.349 492.657 211.524 492.657C184.698 492.657 162.952 514.403 162.952 541.228C162.952 568.054 184.698 589.8 211.524 589.8Z" fill="#FF6868"/>
<path d="M211.524 734.523C238.349 734.523 260.096 712.777 260.096 685.952C260.096 659.126 238.349 637.38 211.524 637.38C184.698 637.38 162.952 659.126 162.952 685.952C162.952 712.777 184.698 734.523 211.524 734.523Z" fill="#FF6868"/>
<path d="M374.401 589.8C401.226 589.8 422.973 568.054 422.973 541.228C422.973 514.403 401.226 492.657 374.401 492.657C347.575 492.657 325.829 514.403 325.829 541.228C325.829 568.054 347.575 589.8 374.401 589.8Z" fill="#FF6868"/>
<path d="M374.401 734.523C401.226 734.523 422.973 712.777 422.973 685.952C422.973 659.126 401.226 637.38 374.401 637.38C347.575 637.38 325.829 659.126 325.829 685.952C325.829 712.777 347.575 734.523 374.401 734.523Z" fill="#FF6868"/>
<path d="M537.28 589.8C564.105 589.8 585.851 568.054 585.851 541.228C585.851 514.403 564.105 492.657 537.28 492.657C510.454 492.657 488.708 514.403 488.708 541.228C488.708 568.054 510.454 589.8 537.28 589.8Z" fill="#FF6868"/>
<path d="M537.28 734.523C564.105 734.523 585.851 712.777 585.851 685.952C585.851 659.126 564.105 637.38 537.28 637.38C510.454 637.38 488.708 659.126 488.708 685.952C488.708 712.777 510.454 734.523 537.28 734.523Z" fill="#FF6868"/>
<path d="M230.121 496.352C232.499 502.082 233.817 508.362 233.817 514.95C233.817 541.776 212.071 563.522 185.245 563.522C178.657 563.522 172.377 562.204 166.647 559.826C173.948 577.421 191.288 589.8 211.524 589.8C238.349 589.8 260.095 568.054 260.095 541.228C260.094 520.993 247.716 503.653 230.121 496.352Z" fill="#CE0A0A"/>
<path d="M230.121 641.076C232.499 646.805 233.817 653.085 233.817 659.674C233.817 686.499 212.071 708.245 185.245 708.245C178.657 708.245 172.377 706.927 166.647 704.55C173.948 722.144 191.288 734.524 211.524 734.524C238.349 734.524 260.095 712.778 260.095 685.952C260.094 665.716 247.716 648.377 230.121 641.076Z" fill="#CE0A0A"/>
<path d="M392.998 496.352C395.376 502.082 396.694 508.362 396.694 514.95C396.694 541.776 374.948 563.522 348.122 563.522C341.534 563.522 335.254 562.204 329.524 559.826C336.825 577.421 354.165 589.8 374.4 589.8C401.226 589.8 422.972 568.054 422.972 541.228C422.972 520.993 410.595 503.653 392.998 496.352Z" fill="#CE0A0A"/>
<path d="M392.998 641.076C395.376 646.805 396.694 653.085 396.694 659.674C396.694 686.499 374.948 708.245 348.122 708.245C341.534 708.245 335.254 706.927 329.524 704.55C336.825 722.144 354.165 734.524 374.4 734.524C401.226 734.524 422.972 712.778 422.972 685.952C422.972 665.716 410.595 648.377 392.998 641.076Z" fill="#CE0A0A"/>
<path d="M555.877 496.352C558.255 502.082 559.573 508.362 559.573 514.95C559.573 541.776 537.827 563.522 511.001 563.522C504.413 563.522 498.133 562.204 492.403 559.826C499.704 577.421 517.044 589.8 537.279 589.8C564.105 589.8 585.851 568.054 585.851 541.228C585.849 520.993 573.472 503.653 555.877 496.352Z" fill="#CE0A0A"/>
<path d="M555.877 641.076C558.255 646.805 559.573 653.085 559.573 659.674C559.573 686.499 537.827 708.245 511.001 708.245C504.413 708.245 498.133 706.927 492.403 704.55C499.704 722.144 517.044 734.524 537.279 734.524C564.105 734.524 585.851 712.778 585.851 685.952C585.849 665.716 573.472 648.377 555.877 641.076Z" fill="#CE0A0A"/>
</svg>
